<svg xmlns="http://www.w3.org/2000/svg" viewBox="0 0 370 64"><path fill="#4285f4" d="M19.58 47.48c-9.87 0-18.17-8.04-18.17-17.91 0-9.87 8.3-17.91 18.17-17.91 5.46 0 9.35 2.14 12.27 4.94l-3.45 3.45c-2.1-1.97-4.93-3.49-8.82-3.49-7.21 0-12.84 5.81-12.84 13.02S12.38 42.6 19.58 42.6c4.67 0 7.34-1.88 9.04-3.58 1.4-1.4 2.32-3.41 2.66-6.16h-11.7v-4.89h16.47c.18.87.26 1.92.26 3.06 0 3.67-1.01 8.21-4.24 11.44-3.14 3.26-7.16 5.01-12.49 5.01z"/><path fill="#ea4335" d="M61.78 35.95c0 6.64-5.1 11.53-11.36 11.53s-11.36-4.89-11.36-11.53c0-6.68 5.1-11.53 11.36-11.53s11.36 4.85 11.36 11.53zm-4.98 0c0-4.15-2.96-6.99-6.39-6.99-3.43 0-6.39 2.84-6.39 6.99 0 4.11 2.96 6.99 6.39 6.99 3.43 0 6.39-2.88 6.39-6.99z"/><path fill="#fbbc04" d="M87.25 35.95c0 6.64-5.1 11.53-11.36 11.53s-11.36-4.89-11.36-11.53c0-6.68 5.1-11.53 11.36-11.53s11.36 4.85 11.36 11.53zm-4.97 0c0-4.15-2.96-6.99-6.39-6.99-3.43 0-6.39 2.84-6.39 6.99 0 4.11 2.96 6.99 6.39 6.99 3.43 0 6.39-2.88 6.39-6.99z"/><path fill="#4285f4" d="M112.09 25.12v20.7c0 8.52-5.02 12.01-10.96 12.01-5.59 0-8.95-3.76-10.22-6.81l4.41-1.83c.79 1.88 2.71 4.1 5.81 4.1 3.8 0 6.16-2.36 6.16-6.77v-1.66h-.18c-1.14 1.4-3.32 2.62-6.07 2.62-5.76 0-11.05-5.02-11.05-11.49 0-6.51 5.28-11.57 11.05-11.57 2.75 0 4.93 1.22 6.07 2.58h.18v-1.88h4.8zm-4.45 10.87c0-4.06-2.71-7.03-6.16-7.03-3.49 0-6.42 2.97-6.42 7.03 0 4.02 2.93 6.94 6.42 6.94 3.45.01 6.16-2.92 6.16-6.94z"/><path fill="#34a853" d="M115.9 12.89h5.07v33.89h-5.07z"/><path fill="#ea4335" d="M140.89 39.75l3.93 2.62c-1.27 1.88-4.32 5.11-9.61 5.11-6.55 0-11.28-5.07-11.28-11.53 0-6.86 4.77-11.53 10.71-11.53 5.98 0 8.91 4.76 9.87 7.34l.52 1.31-15.42 6.38c1.18 2.31 3.01 3.49 5.59 3.49 2.59 0 4.38-1.27 5.69-3.19zm-12.1-4.15l10.31-4.28c-.57-1.44-2.27-2.45-4.28-2.45-2.58.01-6.16 2.28-6.03 6.73z"/><path fill="#5f6368" d="M157.63 46.78V15.14h9.68c4.86 0 8.75 1.47 11.67 4.4 2.92 2.93 4.38 6.74 4.38 11.43 0 4.69-1.46 8.49-4.38 11.43-2.92 2.93-6.81 4.4-11.67 4.4h-9.68zm4.07-3.89h5.61c3.65 0 6.55-1.05 8.69-3.14 2.14-2.09 3.21-5.02 3.21-8.8 0-3.74-1.07-6.67-3.21-8.77-2.14-2.11-5.03-3.16-8.69-3.16h-5.61v23.87zm35.53 4.6c-3.27 0-5.93-1.09-7.98-3.27-2.05-2.18-3.07-4.94-3.07-8.26 0-3.15.99-5.86 2.98-8.13 1.99-2.27 4.53-3.4 7.62-3.4 3.21 0 5.78 1.05 7.71 3.14 1.93 2.09 2.9 4.89 2.9 8.4l-.05.75h-17.11c.12 2.18.85 3.91 2.19 5.17 1.34 1.27 2.91 1.9 4.71 1.9 2.92 0 4.89-1.24 5.92-3.71l3.62 1.5c-.71 1.68-1.87 3.09-3.49 4.22-1.6 1.12-3.59 1.69-5.95 1.69zm5.83-14.14c-.09-1.24-.66-2.42-1.7-3.54-1.05-1.12-2.6-1.68-4.66-1.68-1.5 0-2.81.47-3.91 1.41-1.11.94-1.87 2.21-2.28 3.8h12.55zm13.48 13.43l-8.75-21.66h4.42l6.36 16.79h.09l6.45-16.79h4.33l-8.84 21.66h-4.06zm24.29.71c-3.27 0-5.93-1.09-7.98-3.27-2.05-2.18-3.07-4.94-3.07-8.26 0-3.15.99-5.86 2.98-8.13 1.99-2.27 4.53-3.4 7.62-3.4 3.21 0 5.78 1.05 7.71 3.14 1.93 2.09 2.89 4.89 2.89 8.4l-.04.75h-17.11c.12 2.18.85 3.91 2.19 5.17 1.34 1.27 2.91 1.9 4.71 1.9 2.92 0 4.89-1.24 5.92-3.71l3.62 1.5c-.71 1.68-1.87 3.09-3.49 4.22-1.6 1.12-3.59 1.69-5.95 1.69zm5.83-14.14c-.09-1.24-.66-2.42-1.7-3.54-1.05-1.12-2.6-1.68-4.66-1.68-1.5 0-2.81.47-3.91 1.41-1.11.94-1.86 2.21-2.28 3.8h12.55zm11.86 13.43h-4.06V15.14h4.06v31.64zm6.64-19.07c2.09-2.19 4.76-3.29 8-3.29s5.91 1.1 8 3.29c2.09 2.2 3.14 4.94 3.14 8.24s-1.05 6.05-3.14 8.24c-2.09 2.2-4.76 3.29-8 3.29s-5.91-1.1-8-3.29-3.14-4.94-3.14-8.24c0-3.29 1.05-6.04 3.14-8.24zm3.03 13.92c1.4 1.43 3.06 2.14 4.97 2.14 1.92 0 3.57-.71 4.97-2.14 1.4-1.43 2.1-3.32 2.1-5.68s-.7-4.25-2.1-5.68c-1.4-1.43-3.06-2.14-4.97-2.14-1.92 0-3.57.72-4.97 2.14-1.4 1.43-2.1 3.32-2.1 5.68s.7 4.26 2.1 5.68zm30.92 5.86c-1.65 0-3.13-.35-4.44-1.06-1.31-.71-2.29-1.59-2.94-2.65h-.18l.18 3.01v9.55h-4.07v-31.2h3.89v3h.18c.65-1.06 1.63-1.94 2.94-2.65s2.79-1.06 4.44-1.06c2.8 0 5.22 1.1 7.25 3.31 2.03 2.21 3.05 4.95 3.05 8.22s-1.02 6.01-3.05 8.22c-2.03 2.21-4.45 3.31-7.25 3.31zm-.66-3.71c1.88 0 3.51-.71 4.86-2.14 1.35-1.43 2.03-3.32 2.03-5.68s-.68-4.25-2.03-5.68c-1.35-1.43-2.98-2.14-4.86-2.14-1.92 0-3.54.71-4.88 2.12-1.34 1.41-2.01 3.31-2.01 5.7s.67 4.29 2.01 5.7c1.34 1.41 2.97 2.12 4.88 2.12zm24.35 3.71c-3.27 0-5.93-1.09-7.98-3.27-2.05-2.18-3.07-4.94-3.07-8.26 0-3.15.99-5.86 2.98-8.13 1.99-2.27 4.53-3.4 7.62-3.4 3.21 0 5.78 1.05 7.71 3.14 1.93 2.09 2.9 4.89 2.9 8.4l-.05.75H315.8c.12 2.18.85 3.91 2.19 5.17 1.34 1.27 2.91 1.9 4.71 1.9 2.92 0 4.89-1.24 5.92-3.71l3.62 1.5c-.71 1.68-1.87 3.09-3.49 4.22-1.61 1.12-3.6 1.69-5.95 1.69zm5.83-14.14c-.09-1.24-.66-2.42-1.7-3.54-1.05-1.12-2.6-1.68-4.66-1.68-1.5 0-2.81.47-3.91 1.41-1.11.94-1.87 2.21-2.28 3.8h12.55zm11.8 13.43h-4.07V25.13h3.89v3.54h.18c.41-1.18 1.26-2.15 2.54-2.92s2.53-1.15 3.73-1.15c1.21 0 2.23.18 3.05.53l-1.55 3.8c-.53-.21-1.25-.31-2.17-.31-1.47 0-2.78.58-3.91 1.75-1.14 1.17-1.7 2.69-1.7 4.58v11.83zm19.39.71c-2.42 0-4.41-.59-5.99-1.77-1.58-1.18-2.73-2.65-3.47-4.42l3.63-1.5c1.15 2.71 3.11 4.07 5.88 4.07 1.27 0 2.31-.28 3.12-.84.81-.56 1.21-1.3 1.21-2.21 0-1.41-.99-2.37-2.96-2.87l-4.37-1.06c-1.39-.35-2.7-1.02-3.93-2.01-1.24-.99-1.86-2.32-1.86-4 0-1.91.85-3.47 2.54-4.66s3.7-1.79 6.03-1.79c1.92 0 3.63.44 5.13 1.3 1.5.87 2.58 2.11 3.23 3.74l-3.54 1.46c-.8-1.92-2.45-2.87-4.95-2.87-1.21 0-2.23.25-3.05.75-.83.5-1.24 1.18-1.24 2.03 0 1.24.96 2.08 2.87 2.52l4.29 1.02c2.03.47 3.54 1.28 4.51 2.43.97 1.15 1.46 2.45 1.46 3.89 0 1.94-.8 3.57-2.39 4.86-1.6 1.28-3.65 1.93-6.15 1.93z"/></svg>