<svg xmlns="http://www.w3.org/2000/svg" viewBox="0 0 600 600"><clipPath id="prefix__a"><path d="M295.36 73.58v.06a226.57 226.57 0 10231 231v-231z"/></clipPath><linearGradient id="prefix__b" gradientUnits="userSpaceOnUse" x1="38.59" x2="485.19" y1="561.43" y2="114.82"><stop offset="0" stop-color="#f1f3f4"/><stop offset="1" stop-color="#e8eaed"/></linearGradient><clipPath id="prefix__c"><path d="M475.76 111.05H20.64v391.11h107L489 176.07v-51.82s.34-4.51-3.68-9.14a11.9 11.9 0 00-9.56-4.06z"/></clipPath><radialGradient id="prefix__d" cx="393.15" cy="111.05" gradientUnits="userSpaceOnUse" r="404.69"><stop offset="0" stop-color="#fff"/><stop offset=".01" stop-color="#fff" stop-opacity=".99"/><stop offset=".23" stop-color="#fff" stop-opacity=".69"/><stop offset=".43" stop-color="#fff" stop-opacity=".45"/><stop offset=".62" stop-color="#fff" stop-opacity=".25"/><stop offset=".78" stop-color="#fff" stop-opacity=".12"/><stop offset=".91" stop-color="#fff" stop-opacity=".03"/><stop offset="1" stop-color="#fff" stop-opacity="0"/></radialGradient><circle cx="300" cy="300" fill="#4285f4" r="241.41"/><path d="M300 73.58a225.66 225.66 0 11-88.13 17.79A225.08 225.08 0 01300 73.58m0-15C166.67 58.58 58.59 166.67 58.59 300S166.67 541.42 300 541.42 541.41 433.33 541.41 300 433.33 58.58 300 58.58z" fill="#fff"/><g clip-path="url(#prefix__a)"><path d="M489 561.44V123.93a12.91 12.91 0 00-12.9-12.9H38.6v450.41z" fill="url(#prefix__b)"/><path d="M68.61 167.49h420.35v3H68.61z" fill="#bdc1c6"/><path d="M391.59 211.11c-2.49 2.19-6.28 5.66-10.24 9.82a9.32 9.32 0 01-2.74 2l-.64.29a9.17 9.17 0 01-5.64.52 73.08 73.08 0 00-11.1-1.67 9.1 9.1 0 01-5.23-2.14c-.45-.39-.89-.8-1.31-1.23a10 10 0 01-1.69-2.36c-2.51-5-5-9.25-6.72-12a5.22 5.22 0 00-5.73-2.33l-15.44 3.86a5.19 5.19 0 00-3.95 4.73c-.21 3.3-.44 8.44-.3 14.18a9.21 9.21 0 01-.52 3.36l-.24.66a9.19 9.19 0 01-3.63 4.35 73.28 73.28 0 00-9 6.67 9.06 9.06 0 01-5.21 2.18 17.74 17.74 0 01-1.79.06 9.44 9.44 0 01-2.87-.48c-5.3-1.74-10.11-3-13.21-3.7a5.22 5.22 0 00-5.7 2.4L270.47 254a5.24 5.24 0 00.55 6.15c2.19 2.48 5.66 6.27 9.82 10.23a9.36 9.36 0 012 2.75l.29.63a9.09 9.09 0 01.51 5.64 74.53 74.53 0 00-1.66 11.1 9.1 9.1 0 01-2.14 5.23c-.39.45-.8.89-1.23 1.31a9.3 9.3 0 01-2.37 1.69c-5 2.52-9.24 5-12 6.72a5.22 5.22 0 00-2.33 5.73l3.86 15.44a5.21 5.21 0 004.73 4c3.3.21 8.43.43 14.18.29a9.43 9.43 0 013.36.52l.66.25a9.11 9.11 0 014.35 3.62 73.28 73.28 0 006.67 9 9.13 9.13 0 012.18 5.21c0 .59.06 1.2.06 1.79a9.39 9.39 0 01-.48 2.87c-1.73 5.29-3 10.11-3.7 13.21a5.21 5.21 0 002.4 5.7l13.64 8.19a5.21 5.21 0 006.15-.55c2.48-2.18 6.26-5.65 10.23-9.82a9.28 9.28 0 012.74-2l.65-.3a9.12 9.12 0 015.63-.51 74.55 74.55 0 0011.1 1.67 9.12 9.12 0 015.23 2.14c.45.38.89.8 1.31 1.22a9.73 9.73 0 011.69 2.37c2.51 5 5 9.25 6.72 12a5.24 5.24 0 005.73 2.34l15.44-3.86a5.21 5.21 0 003.95-4.74c.21-3.29.44-8.43.3-14.18a9.43 9.43 0 01.52-3.36c.08-.22.16-.44.25-.65a8.09 8.09 0 01.65-1.32 9.18 9.18 0 013-3 73.28 73.28 0 009-6.67 9.13 9.13 0 015.21-2.18c.59 0 1.2-.06 1.79-.05a9.74 9.74 0 012.87.47c5.29 1.74 10.1 3 13.21 3.71a5.24 5.24 0 005.7-2.4l8.19-13.65a5.21 5.21 0 00-.55-6.14 165.94 165.94 0 00-9.82-10.24 9.32 9.32 0 01-2-2.74c-.1-.21-.19-.43-.29-.64a9.16 9.16 0 01-.51-5.64 74.14 74.14 0 001.66-11.1 9.07 9.07 0 012.14-5.22c.39-.45.8-.9 1.23-1.31a9.58 9.58 0 012.37-1.7c5-2.51 9.24-5 12-6.72a5.22 5.22 0 002.33-5.73l-3.85-15.43a5.21 5.21 0 00-4.74-4c-3.3-.21-8.44-.44-14.18-.3a9.21 9.21 0 01-3.36-.52l-.66-.24a9.13 9.13 0 01-4.35-3.63 73.28 73.28 0 00-6.67-9 9.13 9.13 0 01-2.18-5.21c0-.59-.06-1.19-.06-1.79a9.37 9.37 0 01.48-2.86c1.73-5.29 3-10.11 3.7-13.22a5.21 5.21 0 00-2.4-5.7l-13.64-8.19a5.23 5.23 0 00-6.14.43zm.15 106.35A41.92 41.92 0 11377.37 260a42 42 0 0114.37 57.46z" fill="#fcc934"/><path d="M370.216 438.36l-39.344 152.683L178.19 551.7l39.344-152.682z" fill="#ee675c"/><g fill="#bdc1c6"><circle cx="451.68" cy="128.2" r="3.47"/><circle cx="451.68" cy="139.32" r="3.47"/><circle cx="451.68" cy="150.44" r="3.47"/></g><path d="M179.53 382.85l45.36-175.99L49.8 255.57z" fill="#669df6"/><g clip-path="url(#prefix__c)" opacity=".6"><circle cx="393.14" cy="111.05" fill="url(#prefix__d)" r="404.69"/></g></g></svg>